<mxfile host="65bd71144e">
    <diagram id="XPG2WbKTntQQ8cMpTWzy" name="Page-1">
        <mxGraphModel dx="1539" dy="624" grid="1" gridSize="10" guides="1" tooltips="1" connect="1" arrows="1" fold="1" page="1" pageScale="1" pageWidth="827" pageHeight="1169" math="0" shadow="0">
            <root>
                <mxCell id="0"/>
                <mxCell id="1" parent="0"/>
                <mxCell id="28" value="" style="shape=ext;double=1;whiteSpace=wrap;html=1;aspect=fixed;" vertex="1" parent="1">
                    <mxGeometry x="100" y="330" width="420" height="420" as="geometry"/>
                </mxCell>
                <mxCell id="13" value="" style="edgeStyle=none;html=1;" edge="1" parent="1" source="3" target="12">
                    <mxGeometry relative="1" as="geometry"/>
                </mxCell>
                <mxCell id="17" value="" style="edgeStyle=none;html=1;" edge="1" parent="1" source="3" target="16">
                    <mxGeometry relative="1" as="geometry"/>
                </mxCell>
                <mxCell id="22" value="" style="edgeStyle=none;html=1;" edge="1" parent="1" source="3" target="11">
                    <mxGeometry relative="1" as="geometry"/>
                </mxCell>
                <mxCell id="3" value="Login" style="shape=ext;double=1;whiteSpace=wrap;html=1;aspect=fixed;" vertex="1" parent="1">
                    <mxGeometry x="240" y="40" width="140" height="140" as="geometry"/>
                </mxCell>
                <mxCell id="4" value="Signup" style="shape=ext;double=1;whiteSpace=wrap;html=1;aspect=fixed;" vertex="1" parent="1">
                    <mxGeometry x="460" y="40" width="140" height="140" as="geometry"/>
                </mxCell>
                <mxCell id="7" value="input" style="shape=ext;double=1;rounded=0;whiteSpace=wrap;html=1;" vertex="1" parent="1">
                    <mxGeometry x="275" y="50" width="70" height="30" as="geometry"/>
                </mxCell>
                <mxCell id="8" value="password" style="shape=ext;double=1;rounded=0;whiteSpace=wrap;html=1;" vertex="1" parent="1">
                    <mxGeometry x="275" y="130" width="70" height="30" as="geometry"/>
                </mxCell>
                <mxCell id="11" value="password" style="shape=ext;double=1;rounded=0;whiteSpace=wrap;html=1;" vertex="1" parent="1">
                    <mxGeometry x="495" y="130" width="70" height="30" as="geometry"/>
                </mxCell>
                <mxCell id="12" value="Authorisation" style="rounded=1;whiteSpace=wrap;html=1;" vertex="1" parent="1">
                    <mxGeometry x="30" y="80" width="120" height="60" as="geometry"/>
                </mxCell>
                <mxCell id="19" value="" style="edgeStyle=none;html=1;" edge="1" parent="1" source="16">
                    <mxGeometry relative="1" as="geometry">
                        <mxPoint x="310" y="340" as="targetPoint"/>
                    </mxGeometry>
                </mxCell>
                <mxCell id="16" value="Username or ID" style="whiteSpace=wrap;html=1;" vertex="1" parent="1">
                    <mxGeometry x="265" y="230" width="90" height="40" as="geometry"/>
                </mxCell>
                <mxCell id="23" value="Navbar" style="shape=ext;double=1;whiteSpace=wrap;html=1;aspect=fixed;" vertex="1" parent="1">
                    <mxGeometry x="215" y="340" width="190" height="190" as="geometry"/>
                </mxCell>
                <mxCell id="24" value="Login Button" style="shape=ext;double=1;rounded=0;whiteSpace=wrap;html=1;" vertex="1" parent="1">
                    <mxGeometry x="319" y="360" width="70" height="30" as="geometry"/>
                </mxCell>
                <mxCell id="25" value="Unordered List - List items (Links)" style="shape=ext;double=1;rounded=0;whiteSpace=wrap;html=1;" vertex="1" parent="1">
                    <mxGeometry x="225" y="450" width="170" height="70" as="geometry"/>
                </mxCell>
                <mxCell id="27" value="App Name" style="shape=ext;double=1;rounded=0;whiteSpace=wrap;html=1;" vertex="1" parent="1">
                    <mxGeometry x="225" y="360" width="70" height="30" as="geometry"/>
                </mxCell>
                <mxCell id="29" value="" style="shape=ext;double=1;rounded=0;whiteSpace=wrap;html=1;" vertex="1" parent="1">
                    <mxGeometry x="150" y="550" width="330" height="180" as="geometry"/>
                </mxCell>
            </root>
        </mxGraphModel>
    </diagram>
</mxfile>